<svg width="20" height="20" viewBox="0 0 20 20" fill="none" xmlns="http://www.w3.org/2000/svg">
<g clip-path="url(#clip0_6_48)">
<path d="M19.9982 -0.000484167L16.6399 2.60626C14.8738 1.15932 12.6056 0.280404 10.1421 0.280404C4.57419 0.280404 -0.00146484 4.75105 -0.00146484 10.1903C-0.00146484 15.63 4.57456 19.9992 10.1421 19.9992C14.5068 19.9992 18.2578 17.3189 19.6761 13.5385L16.0419 12.6733C15.0693 14.914 12.8155 16.4597 10.1421 16.4597C6.56334 16.4597 3.72443 13.6864 3.72443 10.1899C3.72443 6.6936 6.56315 3.81903 10.1421 3.81903C11.4699 3.81903 12.6899 4.22068 13.7073 4.89768L10.3836 7.48195L19.9983 9.22353V-0.00109863L19.9982 -0.000484167Z" fill="black"/>
</g>
<defs>
<clipPath id="clip0_6_48">
<rect width="20" height="20" fill="white"/>
</clipPath>
</defs>
</svg>
